STARTFONT 2.1
COMMENT
COMMENT  Copyright (c) 2001, Poonlap Veerathanabutr
COMMENT
COMMENT  License to copy and distribute for both commercial and
COMMENT  non-commercial use is herby granted, provided this notice
COMMENT  is preserved.
COMMENT
COMMENT  Poonlap.Veerathanabutr@japan.sun.com
COMMENT  This font is my hobby, there is nothing related with Sun Microsystems.
COMMENT  The motivation is I want to use some Thai font with emacs but I don't 
COMMENT  like the default one. This font is a bit big but the "head" of thai shows
COMMENT  apparently which I think it is important.
COMMENT
COMMENT  Produced with bdfedit, a tcl/tk font editing program
COMMENT  written by Thomas A. Fine
FONT -poonlap-fixed-medium-i-normal--20-140-100-100-m-11-tis620-0
SIZE 20 100 100
FONTBOUNDINGBOX 22 26 -11 -6
STARTPROPERTIES 11
FOUNDRY "poonlap"
FAMILY_NAME "fixed"
WEIGHT_NAME "Medium"
SLANT "R"
SETWIDTH_NAME "Normal"
SPACING "c"
CHARSET_REGISTRY "ISO-8859"
CHARSET_ENCODING "1"
COPYRIGHT "Copyright (c) 2001 Poonlap Veerathanabutr Poonlap.Veerathanabutr@japan.sun.com"
FONT_ASCENT  20
FONT_DESCENT 6
ENDPROPERTIES
CHARS 191
STARTCHAR space
ENCODING 32
SWIDTH 550 0
DWIDTH 11 0
BBX 0 0 0 0
BITMAP
ENDCHAR
STARTCHAR exclam
ENCODING 33
SWIDTH 550 0
DWIDTH 11 0
BBX 5 12 1 0
BITMAP
08
18
18
10
30
30
20
20
00
00
c0
c0
ENDCHAR
STARTCHAR quotedbl
ENCODING 34
SWIDTH 550 0
DWIDTH 11 0
BBX 7 6 2 7
BITMAP
66
66
cc
cc
88
88
ENDCHAR
STARTCHAR numbersign
ENCODING 35
SWIDTH 550 0
DWIDTH 11 0
BBX 9 15 1 -2
BITMAP
0900
0900
0900
0900
0900
3f80
1200
1200
1200
ff00
4800
4800
4800
4800
4800
ENDCHAR
STARTCHAR dollar
ENCODING 36
SWIDTH 550 0
DWIDTH 11 0
BBX 7 14 2 -1
BITMAP
08
08
3c
42
40
40
30
08
04
84
84
78
20
20
ENDCHAR
STARTCHAR percent
ENCODING 37
SWIDTH 550 0
DWIDTH 11 0
BBX 8 12 1 0
BITMAP
1c
24
44
48
73
0c
30
c7
09
11
12
1c
ENDCHAR
STARTCHAR ampersand
ENCODING 38
SWIDTH 550 0
DWIDTH 11 0
BBX 7 10 2 0
BITMAP
3c
40
40
40
20
76
98
88
8c
76
ENDCHAR
STARTCHAR quoteright
ENCODING 39
SWIDTH 550 0
DWIDTH 11 0
BBX 3 5 4 7
BITMAP
60
60
c0
c0
80
ENDCHAR
STARTCHAR parenleft
ENCODING 40
SWIDTH 550 0
DWIDTH 11 0
BBX 4 14 4 -1
BITMAP
10
20
20
40
40
80
80
80
80
80
80
80
40
40
ENDCHAR
STARTCHAR parenright
ENCODING 41
SWIDTH 550 0
DWIDTH 11 0
BBX 4 14 3 -2
BITMAP
20
20
10
10
10
10
10
10
10
20
20
40
40
80
ENDCHAR
STARTCHAR asterisk
ENCODING 42
SWIDTH 550 0
DWIDTH 11 0
BBX 7 8 2 3
BITMAP
10
10
10
fe
10
28
44
44
ENDCHAR
STARTCHAR plus
ENCODING 43
SWIDTH 550 0
DWIDTH 11 0
BBX 9 9 1 1
BITMAP
0400
0400
0400
0800
ff80
0800
1000
1000
1000
ENDCHAR
STARTCHAR comma
ENCODING 44
SWIDTH 550 0
DWIDTH 11 0
BBX 4 5 3 -3
BITMAP
30
70
60
c0
80
ENDCHAR
STARTCHAR minus
ENCODING 45
SWIDTH 550 0
DWIDTH 11 0
BBX 9 1 1 5
BITMAP
ff80
ENDCHAR
STARTCHAR period
ENCODING 46
SWIDTH 550 0
DWIDTH 11 0
BBX 2 2 4 0
BITMAP
c0
c0
ENDCHAR
STARTCHAR slash
ENCODING 47
SWIDTH 550 0
DWIDTH 11 0
BBX 7 14 2 -1
BITMAP
02
02
04
04
08
08
10
10
20
20
40
40
80
80
ENDCHAR
STARTCHAR zero
ENCODING 48
SWIDTH 550 0
DWIDTH 11 0
BBX 7 12 2 0
BITMAP
1c
22
42
42
82
82
82
82
84
84
88
70
ENDCHAR
STARTCHAR one
ENCODING 49
SWIDTH 550 0
DWIDTH 11 0
BBX 7 12 2 0
BITMAP
04
3c
04
04
08
08
08
08
10
10
10
fe
ENDCHAR
STARTCHAR two
ENCODING 50
SWIDTH 550 0
DWIDTH 11 0
BBX 9 12 1 0
BITMAP
0f00
1080
2080
2080
0080
0100
0600
0800
1000
2100
4100
ff00
ENDCHAR
STARTCHAR three
ENCODING 51
SWIDTH 550 0
DWIDTH 11 0
BBX 8 12 2 0
BITMAP
1e
21
01
01
02
0c
02
01
01
02
86
78
ENDCHAR
STARTCHAR four
ENCODING 52
SWIDTH 550 0
DWIDTH 11 0
BBX 7 12 2 0
BITMAP
06
0a
12
12
24
44
44
84
fe
08
08
3c
ENDCHAR
STARTCHAR five
ENCODING 53
SWIDTH 550 0
DWIDTH 11 0
BBX 8 12 2 0
BITMAP
3f
20
20
40
5c
62
01
01
01
02
86
78
ENDCHAR
STARTCHAR six
ENCODING 54
SWIDTH 550 0
DWIDTH 11 0
BBX 8 12 3 0
BITMAP
0f
30
20
40
40
9c
a2
c2
82
82
84
78
ENDCHAR
STARTCHAR seven
ENCODING 55
SWIDTH 550 0
DWIDTH 11 0
BBX 7 12 4 0
BITMAP
fe
82
04
08
08
10
10
20
20
40
40
80
ENDCHAR
STARTCHAR eight
ENCODING 56
SWIDTH 550 0
DWIDTH 11 0
BBX 7 12 3 0
BITMAP
1c
22
42
42
44
38
44
84
84
84
88
70
ENDCHAR
STARTCHAR nine
ENCODING 57
SWIDTH 550 0
DWIDTH 11 0
BBX 8 12 2 0
BITMAP
0e
11
21
21
21
23
1d
02
02
04
18
e0
ENDCHAR
STARTCHAR colon
ENCODING 58
SWIDTH 550 0
DWIDTH 11 0
BBX 3 8 4 0
BITMAP
60
60
00
00
00
00
c0
c0
ENDCHAR
STARTCHAR semicolon
ENCODING 59
SWIDTH 550 0
DWIDTH 11 0
BBX 5 11 2 -3
BITMAP
18
18
00
00
00
00
30
30
60
40
80
ENDCHAR
STARTCHAR less
ENCODING 60
SWIDTH 550 0
DWIDTH 11 0
BBX 10 8 1 2
BITMAP
00c0
0380
0e00
3800
e000
3800
0e00
0380
ENDCHAR
STARTCHAR equal
ENCODING 61
SWIDTH 550 0
DWIDTH 11 0
BBX 10 4 0 3
BITMAP
7fc0
0000
0000
ff80
ENDCHAR
STARTCHAR greater
ENCODING 62
SWIDTH 550 0
DWIDTH 11 0
BBX 11 8 0 2
BITMAP
3800
0e00
0380
00e0
0380
0e00
3800
e000
ENDCHAR
STARTCHAR question
ENCODING 63
SWIDTH 550 0
DWIDTH 11 0
BBX 7 11 2 0
BITMAP
7c
82
82
02
02
1c
10
10
00
18
18
ENDCHAR
STARTCHAR at
ENCODING 64
SWIDTH 550 0
DWIDTH 11 0
BBX 8 12 2 -1
BITMAP
0e
31
21
42
4e
92
a4
a4
9e
80
84
78
ENDCHAR
STARTCHAR A
ENCODING 65
SWIDTH 550 0
DWIDTH 11 0
BBX 8 11 2 0
BITMAP
08
08
14
14
22
22
42
7e
81
81
81
ENDCHAR
STARTCHAR B
ENCODING 66
SWIDTH 550 0
DWIDTH 11 0
BBX 8 11 2 0
BITMAP
3e
21
21
41
42
7c
42
81
81
82
fc
ENDCHAR
STARTCHAR C
ENCODING 67
SWIDTH 550 0
DWIDTH 11 0
BBX 9 11 1 0
BITMAP
0e00
3100
4080
4000
8000
8000
8000
8000
4080
6300
3c00
ENDCHAR
STARTCHAR D
ENCODING 68
SWIDTH 550 0
DWIDTH 11 0
BBX 9 11 2 0
BITMAP
3e00
2100
2080
4080
4080
4080
4080
8100
8100
8200
fc00
ENDCHAR
STARTCHAR E
ENCODING 69
SWIDTH 550 0
DWIDTH 11 0
BBX 9 11 1 0
BITMAP
3f80
2000
2000
4000
4000
7e00
4000
8000
8000
8000
fe00
ENDCHAR
STARTCHAR F
ENCODING 70
SWIDTH 550 0
DWIDTH 11 0
BBX 8 11 2 0
BITMAP
3f
20
20
40
40
78
40
80
80
80
80
ENDCHAR
STARTCHAR G
ENCODING 71
SWIDTH 550 0
DWIDTH 11 0
BBX 9 11 1 0
BITMAP
0f00
3080
6000
4000
8000
8000
8380
8080
4080
6100
3e00
ENDCHAR
STARTCHAR H
ENCODING 72
SWIDTH 550 0
DWIDTH 11 0
BBX 9 11 1 0
BITMAP
2080
2080
2080
4100
4100
7f00
4100
8200
8200
8200
8200
ENDCHAR
STARTCHAR I
ENCODING 73
SWIDTH 550 0
DWIDTH 11 0
BBX 7 11 2 0
BITMAP
3e
08
08
08
10
10
10
20
20
20
f8
ENDCHAR
STARTCHAR J
ENCODING 74
SWIDTH 550 0
DWIDTH 11 0
BBX 9 11 1 0
BITMAP
0380
0080
0080
0080
0100
0100
4100
4200
8200
8600
7800
ENDCHAR
STARTCHAR K
ENCODING 75
SWIDTH 550 0
DWIDTH 11 0
BBX 8 11 1 0
BITMAP
21
21
22
24
48
58
64
44
82
82
82
ENDCHAR
STARTCHAR L
ENCODING 76
SWIDTH 550 0
DWIDTH 11 0
BBX 7 11 2 0
BITMAP
20
20
20
20
40
40
40
80
80
80
fe
ENDCHAR
STARTCHAR M
ENCODING 77
SWIDTH 550 0
DWIDTH 11 0
BBX 10 11 1 0
BITMAP
30c0
30c0
3140
5280
5280
4c80
4880
8100
8100
8100
8100
ENDCHAR
STARTCHAR N
ENCODING 78
SWIDTH 550 0
DWIDTH 11 0
BBX 9 11 1 0
BITMAP
3080
3080
3080
4880
4900
4900
4500
8500
8200
8200
8200
ENDCHAR
STARTCHAR O
ENCODING 79
SWIDTH 550 0
DWIDTH 11 0
BBX 10 11 1 0
BITMAP
0f00
3180
6080
4040
8040
8040
8040
8080
4180
6300
3c00
ENDCHAR
STARTCHAR P
ENCODING 80
SWIDTH 550 0
DWIDTH 11 0
BBX 9 11 1 0
BITMAP
3f00
2080
2080
2080
4100
4300
7c00
8000
8000
8000
8000
ENDCHAR
STARTCHAR Q
ENCODING 81
SWIDTH 550 0
DWIDTH 11 0
BBX 10 12 1 -1
BITMAP
0f00
3180
6080
4040
8040
8040
8040
8880
4580
6700
3d00
0080
ENDCHAR
STARTCHAR R
ENCODING 82
SWIDTH 550 0
DWIDTH 11 0
BBX 8 11 1 0
BITMAP
3e
21
21
41
42
7c
44
82
82
81
81
ENDCHAR
STARTCHAR S
ENCODING 83
SWIDTH 550 0
DWIDTH 11 0
BBX 8 11 1 0
BITMAP
1e
23
40
40
20
1e
01
01
01
c2
7c
ENDCHAR
STARTCHAR T
ENCODING 84
SWIDTH 550 0
DWIDTH 11 0
BBX 9 11 1 0
BITMAP
ff80
0800
0800
0800
1000
1000
1000
2000
2000
2000
2000
ENDCHAR
STARTCHAR U
ENCODING 85
SWIDTH 550 0
DWIDTH 11 0
BBX 9 11 1 0
BITMAP
2080
2080
2080
4100
4100
4100
8200
8200
8200
8400
7800
ENDCHAR
STARTCHAR V
ENCODING 86
SWIDTH 550 0
DWIDTH 11 0
BBX 9 11 1 0
BITMAP
8080
8080
8100
4100
4200
4200
4400
4400
2800
3000
3000
ENDCHAR
STARTCHAR W
ENCODING 87
SWIDTH 550 0
DWIDTH 11 0
BBX 10 11 1 0
BITMAP
8040
8040
8c40
8c80
9480
9500
a500
a500
c600
c600
8400
ENDCHAR
STARTCHAR X
ENCODING 88
SWIDTH 550 0
DWIDTH 11 0
BBX 9 11 1 0
BITMAP
2080
2080
2100
1200
1400
0800
1400
2400
4200
8200
8200
ENDCHAR
STARTCHAR Y
ENCODING 89
SWIDTH 550 0
DWIDTH 11 0
BBX 7 11 2 0
BITMAP
82
82
84
48
48
30
20
20
40
40
40
ENDCHAR
STARTCHAR Z
ENCODING 90
SWIDTH 550 0
DWIDTH 11 0
BBX 9 11 1 0
BITMAP
3f80
0080
0100
0200
0400
0800
1000
2000
4000
8000
fe00
ENDCHAR
STARTCHAR bracketleft
ENCODING 91
SWIDTH 550 0
DWIDTH 11 0
BBX 6 14 3 -3
BITMAP
1c
10
10
10
20
20
20
40
40
40
80
80
80
e0
ENDCHAR
STARTCHAR backslash
ENCODING 92
SWIDTH 550 0
DWIDTH 11 0
BBX 7 14 2 -2
BITMAP
80
80
40
40
20
20
10
10
08
08
04
04
02
02
ENDCHAR
STARTCHAR bracketright
ENCODING 93
SWIDTH 550 0
DWIDTH 11 0
BBX 6 14 2 -2
BITMAP
1c
04
04
04
08
08
08
10
10
10
20
20
20
e0
ENDCHAR
STARTCHAR asciicircum
ENCODING 94
SWIDTH 550 0
DWIDTH 11 0
BBX 7 5 2 8
BITMAP
0c
14
22
42
82
ENDCHAR
STARTCHAR underscore
ENCODING 95
SWIDTH 550 0
DWIDTH 11 0
BBX 11 1 0 -4
BITMAP
ffe0
ENDCHAR
STARTCHAR quoteleft
ENCODING 96
SWIDTH 550 0
DWIDTH 11 0
BBX 3 5 4 7
BITMAP
c0
c0
60
60
20
ENDCHAR
STARTCHAR a
ENCODING 97
SWIDTH 550 0
DWIDTH 11 0
BBX 9 8 1 0
BITMAP
1f00
2080
0080
1f00
6100
8100
8300
7d00
ENDCHAR
STARTCHAR b
ENCODING 98
SWIDTH 550 0
DWIDTH 11 0
BBX 8 12 1 0
BITMAP
20
20
20
20
4e
51
61
41
81
82
c6
b8
ENDCHAR
STARTCHAR c
ENCODING 99
SWIDTH 550 0
DWIDTH 11 0
BBX 8 8 1 0
BITMAP
1e
61
40
80
80
80
42
3c
ENDCHAR
STARTCHAR d
ENCODING 100
SWIDTH 550 0
DWIDTH 11 0
BBX 9 12 1 0
BITMAP
0080
0080
0080
0100
1d00
6300
4100
8100
8200
8200
4600
3a00
ENDCHAR
STARTCHAR e
ENCODING 101
SWIDTH 550 0
DWIDTH 11 0
BBX 9 8 1 0
BITMAP
1e00
6100
4080
ff80
8000
8000
4300
3c00
ENDCHAR
STARTCHAR f
ENCODING 102
SWIDTH 550 0
DWIDTH 11 0
BBX 8 12 2 0
BITMAP
0f
10
10
10
fe
20
20
20
40
40
40
40
ENDCHAR
STARTCHAR g
ENCODING 103
SWIDTH 550 0
DWIDTH 11 0
BBX 8 12 2 -4
BITMAP
1d
63
41
81
82
82
46
3a
02
04
0c
f0
ENDCHAR
STARTCHAR h
ENCODING 104
SWIDTH 550 0
DWIDTH 11 0
BBX 8 12 2 0
BITMAP
20
20
20
20
4e
51
61
41
82
82
82
82
ENDCHAR
STARTCHAR i
ENCODING 105
SWIDTH 550 0
DWIDTH 11 0
BBX 3 11 4 0
BITMAP
20
20
00
40
40
40
40
80
80
80
80
ENDCHAR
STARTCHAR j
ENCODING 106
SWIDTH 550 0
DWIDTH 11 0
BBX 8 15 2 -4
BITMAP
01
01
00
02
02
02
02
02
04
04
04
04
04
08
f0
ENDCHAR
STARTCHAR k
ENCODING 107
SWIDTH 550 0
DWIDTH 11 0
BBX 6 12 1 0
BITMAP
20
20
20
20
44
48
50
60
90
88
84
84
ENDCHAR
STARTCHAR l
ENCODING 108
SWIDTH 550 0
DWIDTH 11 0
BBX 3 12 3 0
BITMAP
20
20
20
20
40
40
40
40
80
80
80
80
ENDCHAR
STARTCHAR m
ENCODING 109
SWIDTH 550 0
DWIDTH 11 0
BBX 10 8 1 0
BITMAP
5980
6640
4440
4440
4440
8880
8880
8880
ENDCHAR
STARTCHAR n
ENCODING 110
SWIDTH 550 0
DWIDTH 11 0
BBX 8 8 2 0
BITMAP
4e
51
61
41
82
82
82
82
ENDCHAR
STARTCHAR o
ENCODING 111
SWIDTH 550 0
DWIDTH 11 0
BBX 9 8 1 0
BITMAP
1e00
6100
4080
8080
8080
8100
4300
3c00
ENDCHAR
STARTCHAR p
ENCODING 112
SWIDTH 550 0
DWIDTH 11 0
BBX 9 12 1 -4
BITMAP
2700
2880
3080
2080
4080
4100
6300
5c00
8000
8000
8000
8000
ENDCHAR
STARTCHAR q
ENCODING 113
SWIDTH 550 0
DWIDTH 11 0
BBX 8 12 1 -4
BITMAP
1d
63
41
81
82
82
86
7a
04
04
04
04
ENDCHAR
STARTCHAR r
ENCODING 114
SWIDTH 550 0
DWIDTH 11 0
BBX 7 8 2 0
BITMAP
4c
52
60
40
40
80
80
80
ENDCHAR
STARTCHAR s
ENCODING 115
SWIDTH 550 0
DWIDTH 11 0
BBX 7 8 2 0
BITMAP
3c
42
40
30
08
04
84
78
ENDCHAR
STARTCHAR t
ENCODING 116
SWIDTH 550 0
DWIDTH 11 0
BBX 5 11 4 0
BITMAP
20
20
20
f8
40
40
40
80
80
80
80
ENDCHAR
STARTCHAR u
ENCODING 117
SWIDTH 550 0
DWIDTH 11 0
BBX 8 8 2 0
BITMAP
41
41
41
82
82
86
8a
72
ENDCHAR
STARTCHAR v
ENCODING 118
SWIDTH 550 0
DWIDTH 11 0
BBX 7 8 2 0
BITMAP
82
82
84
44
48
48
30
30
ENDCHAR
STARTCHAR w
ENCODING 119
SWIDTH 550 0
DWIDTH 11 0
BBX 8 8 2 0
BITMAP
81
81
91
92
b2
ec
cc
88
ENDCHAR
STARTCHAR x
ENCODING 120
SWIDTH 550 0
DWIDTH 11 0
BBX 8 8 1 0
BITMAP
21
21
12
0c
18
24
42
82
ENDCHAR
STARTCHAR y
ENCODING 121
SWIDTH 550 0
DWIDTH 11 0
BBX 7 12 3 -4
BITMAP
82
82
84
44
48
30
30
20
40
40
80
80
ENDCHAR
STARTCHAR z
ENCODING 122
SWIDTH 550 0
DWIDTH 11 0
BBX 8 8 2 0
BITMAP
7f
02
04
08
10
20
40
fe
ENDCHAR
STARTCHAR braceleft
ENCODING 123
SWIDTH 550 0
DWIDTH 11 0
BBX 6 14 3 -3
BITMAP
0c
10
10
20
20
20
c0
20
20
40
40
40
40
30
ENDCHAR
STARTCHAR bar
ENCODING 124
SWIDTH 550 0
DWIDTH 11 0
BBX 3 14 4 -3
BITMAP
20
20
20
20
40
40
40
40
40
80
80
80
80
80
ENDCHAR
STARTCHAR braceright
ENCODING 125
SWIDTH 550 0
DWIDTH 11 0
BBX 6 14 3 -3
BITMAP
30
08
08
08
08
10
10
0c
10
10
10
20
20
c0
ENDCHAR
STARTCHAR asciitilde
ENCODING 126
SWIDTH 550 0
DWIDTH 11 0
BBX 8 3 1 8
BITMAP
70
99
0e
ENDCHAR
STARTCHAR space
ENCODING 160
SWIDTH 550 0
DWIDTH 11 0
BBX 0 0 0 0
BITMAP
ENDCHAR
STARTCHAR KO_KAI
ENCODING 161
SWIDTH 550 0
DWIDTH 11 0
BBX 8 10 1 0
BITMAP
3c
42
61
21
21
42
42
42
84
84
ENDCHAR
STARTCHAR KHO_KHAI
ENCODING 162
SWIDTH 550 0
DWIDTH 11 0
BBX 9 10 1 0
BITMAP
3080
4880
a880
4900
1100
1100
1100
2200
2200
7e00
ENDCHAR
STARTCHAR KHO_KHUAT
ENCODING 163
SWIDTH 550 0
DWIDTH 11 0
BBX 9 10 2 0
BITMAP
5080
a880
a880
d900
2900
1100
1100
2200
2200
7e00
ENDCHAR
STARTCHAR KHO_KHWAI
ENCODING 164
SWIDTH 550 0
DWIDTH 11 0
BBX 9 10 1 0
BITMAP
1e00
2100
4080
4880
5480
7500
4900
8200
8200
8200
ENDCHAR
STARTCHAR KHO_KHON
ENCODING 165
SWIDTH 550 0
DWIDTH 11 0
BBX 9 10 2 0
BITMAP
3a00
4500
8480
8880
5500
7500
4900
4200
8200
8200
ENDCHAR
STARTCHAR KHO_RAKHANG
ENCODING 166
SWIDTH 550 0
DWIDTH 11 0
BBX 10 10 1 0
BITMAP
2840
5440
a480
5480
2880
0880
2880
5d00
5300
3100
ENDCHAR
STARTCHAR NGO_NGU
ENCODING 167
SWIDTH 550 0
DWIDTH 11 0
BBX 7 10 2 0
BITMAP
04
0a
0a
06
84
84
44
48
28
10
ENDCHAR
STARTCHAR CHO_CHAN
ENCODING 168
SWIDTH 550 0
DWIDTH 11 0
BBX 7 10 2 0
BITMAP
78
84
02
22
54
54
2c
08
10
10
ENDCHAR
STARTCHAR CHO_CHING
ENCODING 169
SWIDTH 550 0
DWIDTH 11 0
BBX 8 10 1 0
BITMAP
3c
42
02
42
a2
a4
66
3d
45
42
ENDCHAR
STARTCHAR CHO_CHANG
ENCODING 170
SWIDTH 550 0
DWIDTH 11 0
BBX 9 12 1 0
BITMAP
0080
0100
3200
4c00
aa00
4900
1100
1100
1100
2200
2200
7e00
ENDCHAR
STARTCHAR SO_SO
ENCODING 171
SWIDTH 550 0
DWIDTH 11 0
BBX 9 12 1 0
BITMAP
0080
0100
5200
ac00
aa00
d900
2900
1100
1100
1100
2200
7e00
ENDCHAR
STARTCHAR CHO_CHOE
ENCODING 172
SWIDTH 550 0
DWIDTH 11 0
BBX 10 10 0 0
BITMAP
1840
2440
4240
2240
4240
8480
cc80
b680
b580
4880
ENDCHAR
STARTCHAR YO_YING
ENCODING 173
SWIDTH 550 0
DWIDTH 11 0
BBX 10 14 0 -4
BITMAP
3840
4440
4240
2240
4280
4480
c480
a480
a480
4f80
0000
1100
2900
1e00
ENDCHAR
STARTCHAR DO_CHADA
ENCODING 174
SWIDTH 550 0
DWIDTH 11 0
BBX 9 14 1 -4
BITMAP
0e00
1100
1880
0880
1080
1080
3100
5100
5100
2100
0200
6a00
b200
4e00
ENDCHAR
STARTCHAR TO_PATAK
ENCODING 175
SWIDTH 550 0
DWIDTH 11 0
BBX 10 14 0 -4
BITMAP
0700
0880
0c40
0440
0840
0840
1880
2880
2880
1080
0900
5500
ab00
5100
ENDCHAR
STARTCHAR THO_THAN
ENCODING 176
SWIDTH 550 0
DWIDTH 11 0
BBX 12 14 -2 -4
BITMAP
01c0
0630
0180
0040
0260
0520
0520
02c0
0040
0040
0800
5280
b580
4880
ENDCHAR
STARTCHAR THO_NANGMONTHO
ENCODING 177
SWIDTH 550 0
DWIDTH 11 0
BBX 9 10 1 0
BITMAP
2900
5680
a480
5480
2880
1900
2100
2100
2100
2100
ENDCHAR
STARTCHAR THO_PHUTHAO
ENCODING 178
SWIDTH 550 0
DWIDTH 11 0
BBX 9 10 1 0
BITMAP
2c80
5280
4280
9280
aa80
aa80
5680
6c80
9700
8900
ENDCHAR
STARTCHAR NO_NEN
ENCODING 179
SWIDTH 550 0
DWIDTH 11 0
BBX 9 10 1 0
BITMAP
3100
4900
4500
2500
4a00
8a00
cb00
aa80
aa80
4d00
ENDCHAR
STARTCHAR DO_DEK
ENCODING 180
SWIDTH 550 0
DWIDTH 11 0
BBX 8 10 2 0
BITMAP
1c
22
51
a9
a9
92
62
84
84
84
ENDCHAR
STARTCHAR TO_TAO
ENCODING 181
SWIDTH 550 0
DWIDTH 11 0
BBX 8 10 2 0
BITMAP
14
2a
41
91
a9
aa
52
e4
84
84
ENDCHAR
STARTCHAR THO_THUNG
ENCODING 182
SWIDTH 550 0
DWIDTH 11 0
BBX 8 10 1 0
BITMAP
3c
42
61
21
41
41
c2
a2
a2
42
ENDCHAR
STARTCHAR THO_THAHAN
ENCODING 183
SWIDTH 550 0
DWIDTH 11 0
BBX 8 10 1 0
BITMAP
44
aa
b1
61
21
42
42
84
84
84
ENDCHAR
STARTCHAR THO_THONG
ENCODING 184
SWIDTH 550 0
DWIDTH 11 0
BBX 8 10 1 0
BITMAP
1c
23
40
3c
02
21
21
42
42
fc
ENDCHAR
STARTCHAR NO_NU
ENCODING 185
SWIDTH 550 0
DWIDTH 11 0
BBX 7 10 2 0
BITMAP
42
a2
a2
62
24
44
44
9a
aa
c4
ENDCHAR
STARTCHAR BO_BAIMAI
ENCODING 186
SWIDTH 550 0
DWIDTH 11 0
BBX 9 10 1 0
BITMAP
2080
5080
5080
3100
1100
2100
2100
4200
4200
fe00
ENDCHAR
STARTCHAR PO_PLA
ENCODING 187
SWIDTH 550 0
DWIDTH 11 0
BBX 10 15 1 0
BITMAP
0040
0040
0040
0080
0080
2080
5080
5100
3100
1100
2100
2100
4200
4200
fe00
ENDCHAR
STARTCHAR PHO_PHUNG
ENCODING 188
SWIDTH 550 0
DWIDTH 11 0
BBX 9 10 1 0
BITMAP
1080
2880
2880
7100
4100
4100
8a00
9a00
a600
c400
ENDCHAR
STARTCHAR FO_FA
ENCODING 189
SWIDTH 550 0
DWIDTH 11 0
BBX 10 14 1 0
BITMAP
0040
0040
0040
0080
1080
2880
2880
5100
4100
4100
8900
9500
a600
c400
ENDCHAR
STARTCHAR PHO_PHAN
ENCODING 190
SWIDTH 550 0
DWIDTH 11 0
BBX 10 10 1 0
BITMAP
2040
5040
5080
3080
2080
4500
4d00
9500
a600
c400
ENDCHAR
STARTCHAR FO_FAN
ENCODING 191
SWIDTH 550 0
DWIDTH 11 0
BBX 10 15 1 0
BITMAP
0040
0040
0040
0080
0080
4080
a080
a100
6100
2100
4900
4a00
9a00
a600
c400
ENDCHAR
STARTCHAR PHO_SAMPHAO
ENCODING 192
SWIDTH 550 0
DWIDTH 11 0
BBX 9 10 1 0
BITMAP
0f00
1080
2080
1880
1100
2100
6100
a200
a200
4200
ENDCHAR
STARTCHAR MO_MA
ENCODING 193
SWIDTH 550 0
DWIDTH 11 0
BBX 8 10 1 0
BITMAP
21
51
51
31
12
22
62
b4
ac
44
ENDCHAR
STARTCHAR YO_YAK
ENCODING 194
SWIDTH 550 0
DWIDTH 11 0
BBX 9 10 1 0
BITMAP
1080
2880
2900
3100
2100
3a00
4200
4200
4200
fe00
ENDCHAR
STARTCHAR RO_RUA
ENCODING 195
SWIDTH 550 0
DWIDTH 11 0
BBX 7 10 2 0
BITMAP
78
86
f0
08
08
10
30
50
50
20
ENDCHAR
STARTCHAR RU
ENCODING 196
SWIDTH 550 0
DWIDTH 11 0
BBX 7 14 2 -4
BITMAP
38
44
62
22
42
44
c4
a4
a4
48
08
08
08
08
ENDCHAR
STARTCHAR LO_LING
ENCODING 197
SWIDTH 550 0
DWIDTH 11 0
BBX 8 10 2 0
BITMAP
3c
42
01
21
52
8a
ca
a4
a4
44
ENDCHAR
STARTCHAR LU
ENCODING 198
SWIDTH 550 0
DWIDTH 11 0
BBX 8 14 1 -4
BITMAP
1c
22
21
11
21
22
62
a2
a2
44
04
04
04
04
ENDCHAR
STARTCHAR WO_WAEN
ENCODING 199
SWIDTH 550 0
DWIDTH 11 0
BBX 7 10 2 0
BITMAP
3c
42
82
04
04
04
18
28
28
10
ENDCHAR
STARTCHAR SO_SALA
ENCODING 200
SWIDTH 550 0
DWIDTH 11 0
BBX 9 13 1 0
BITMAP
0080
0080
0100
3e00
4100
4080
8880
9500
7500
4900
8200
8200
8200
ENDCHAR
STARTCHAR SO_RUSI
ENCODING 201
SWIDTH 550 0
DWIDTH 11 0
BBX 10 10 1 0
BITMAP
2080
5080
5140
3580
2b00
2500
4200
4200
4200
fe00
ENDCHAR
STARTCHAR SO_SUA
ENCODING 202
SWIDTH 550 0
DWIDTH 11 0
BBX 10 12 1 0
BITMAP
0040
0040
1e80
2180
0080
3080
4900
4500
6500
a200
a200
4200
ENDCHAR
STARTCHAR HO_HIP
ENCODING 203
SWIDTH 550 0
DWIDTH 11 0
BBX 8 10 2 0
BITMAP
42
a5
a5
4e
72
42
84
84
84
84
ENDCHAR
STARTCHAR LO_CHULA
ENCODING 204
SWIDTH 550 0
DWIDTH 11 0
BBX 9 16 1 0
BITMAP
0080
0680
0900
0780
0080
0080
4080
a080
a100
4100
4100
4900
9a00
aa00
ca00
8c00
ENDCHAR
STARTCHAR O_ANG
ENCODING 205
SWIDTH 550 0
DWIDTH 11 0
BBX 8 10 1 0
BITMAP
1e
21
01
21
51
51
62
42
42
fe
ENDCHAR
STARTCHAR HO_NOKHUK
ENCODING 206
SWIDTH 550 0
DWIDTH 11 0
BBX 9 13 1 0
BITMAP
0080
0080
0100
1e00
2100
0100
2100
5100
5100
6200
4200
4200
fe00
ENDCHAR
STARTCHAR PAIYANNOI
ENCODING 207
SWIDTH 550 0
DWIDTH 11 0
BBX 7 10 2 0
BITMAP
42
a2
a6
4a
32
02
04
04
04
04
ENDCHAR
STARTCHAR SARA_A
ENCODING 208
SWIDTH 550 0
DWIDTH 11 0
BBX 8 10 1 0
BITMAP
20
51
51
22
1c
40
a2
a2
64
38
ENDCHAR
STARTCHAR MAI_HAN-AKAT
ENCODING 209
SWIDTH 0 0
DWIDTH 0 0
BBX 7 5 -9 11
BITMAP
40
a2
a2
44
38
ENDCHAR
STARTCHAR SARA_AA
ENCODING 210
SWIDTH 550 0
DWIDTH 11 0
BBX 6 10 3 0
BITMAP
70
88
04
04
04
04
08
08
08
08
ENDCHAR
STARTCHAR SARA_AM
ENCODING 211
SWIDTH 550 0
DWIDTH 11 0
BBX 9 13 0 0
BITMAP
6000
9000
6000
0600
0900
1080
0080
0080
0080
0100
0100
0100
0100
ENDCHAR
STARTCHAR SARA_I
ENCODING 212
SWIDTH 0 0
DWIDTH 0 0
BBX 6 3 -9 11
BITMAP
78
84
fc
ENDCHAR
STARTCHAR SARA_II
ENCODING 213
SWIDTH 0 0
DWIDTH 0 0
BBX 7 4 -9 11
BITMAP
02
76
8c
f8
ENDCHAR
STARTCHAR SARA_UE
ENCODING 214
SWIDTH 0 0
DWIDTH 0 0
BBX 7 4 -9 11
BITMAP
04
7a
9c
f8
ENDCHAR
STARTCHAR SARA_UEE
ENCODING 215
SWIDTH 0 0
DWIDTH 0 0
BBX 7 4 -9 11
BITMAP
0a
76
8c
f8
ENDCHAR
STARTCHAR SARA_U
ENCODING 216
SWIDTH 0 0
DWIDTH 0 0
BBX 3 4 -5 -5
BITMAP
40
a0
60
20
ENDCHAR
STARTCHAR SARA_UU
ENCODING 217
SWIDTH 0 0
DWIDTH 0 0
BBX 5 4 -7 -5
BITMAP
48
a8
68
38
ENDCHAR
STARTCHAR PHINTHU
ENCODING 218
SWIDTH 0 0
DWIDTH 0 0
BBX 4 3 -8 -4
BITMAP
60
f0
60
ENDCHAR
STARTCHAR Ucircumflex
ENCODING 219
SWIDTH 550 0
DWIDTH 11 0
BBX 0 0 0 0
BITMAP
ENDCHAR
STARTCHAR Udieresis
ENCODING 220
SWIDTH 550 0
DWIDTH 11 0
BBX 0 0 0 0
BITMAP
ENDCHAR
STARTCHAR Yacute
ENCODING 221
SWIDTH 550 0
DWIDTH 11 0
BBX 0 0 0 0
BITMAP
ENDCHAR
STARTCHAR Thorn
ENCODING 222
SWIDTH 550 0
DWIDTH 11 0
BBX 0 0 0 0
BITMAP
ENDCHAR
STARTCHAR SYMBOL_BAHT
ENCODING 223
SWIDTH 550 0
DWIDTH 11 0
BBX 9 15 1 -2
BITMAP
0500
0500
3f00
2a80
2a80
4a80
5300
7e00
5500
9500
a900
aa00
fc00
2800
2800
ENDCHAR
STARTCHAR SARA_E
ENCODING 224
SWIDTH 550 0
DWIDTH 11 0
BBX 3 10 4 0
BITMAP
40
40
40
40
80
80
c0
a0
a0
40
ENDCHAR
STARTCHAR SARA_AE
ENCODING 225
SWIDTH 550 0
DWIDTH 11 0
BBX 7 10 2 0
BITMAP
44
44
44
44
88
88
cc
aa
aa
44
ENDCHAR
STARTCHAR SARA_O
ENCODING 226
SWIDTH 550 0
DWIDTH 11 0
BBX 6 15 3 0
BITMAP
78
84
40
20
20
40
40
40
40
80
80
c0
a0
a0
40
ENDCHAR
STARTCHAR SARA_AI_MAIMUAN
ENCODING 227
SWIDTH 550 0
DWIDTH 11 0
BBX 6 15 2 0
BITMAP
30
48
84
a4
d4
64
08
08
08
08
10
10
28
28
10
ENDCHAR
STARTCHAR SARA_AI_MAIMALAI
ENCODING 228
SWIDTH 550 0
DWIDTH 11 0
BBX 6 15 2 0
BITMAP
8c
54
24
04
08
08
08
08
08
10
10
10
28
28
10
ENDCHAR
STARTCHAR LAKKHANGYAO
ENCODING 229
SWIDTH 550 0
DWIDTH 11 0
BBX 7 13 2 -3
BITMAP
38
44
82
02
02
04
04
04
08
08
08
08
08
ENDCHAR
STARTCHAR MAIYAMOK
ENCODING 230
SWIDTH 550 0
DWIDTH 11 0
BBX 7 13 2 -3
BITMAP
68
94
c2
a2
a2
42
04
04
04
04
04
38
40
ENDCHAR
STARTCHAR MAITAIKHU
ENCODING 231
SWIDTH 0 0
DWIDTH 0 0
BBX 7 6 -9 14
BITMAP
06
38
40
94
aa
44
ENDCHAR
STARTCHAR MAI_EK
ENCODING 232
SWIDTH 0 0
DWIDTH 0 0
BBX 2 4 -4 16
BITMAP
40
40
80
80
ENDCHAR
STARTCHAR MAI_THO
ENCODING 233
SWIDTH 0 0
DWIDTH 0 0
BBX 6 5 -8 15
BITMAP
44
a4
48
30
40
ENDCHAR
STARTCHAR MAI_TRI
ENCODING 234
SWIDTH 0 0
DWIDTH 0 0
BBX 8 5 -9 15
BITMAP
29
55
c5
a6
44
ENDCHAR
STARTCHAR MAI_CHATTAWA
ENCODING 235
SWIDTH 0 0
DWIDTH 0 0
BBX 5 5 -8 15
BITMAP
20
20
f8
20
20
ENDCHAR
STARTCHAR THANTHAKHAT
ENCODING 236
SWIDTH 0 0
DWIDTH 0 0
BBX 5 6 -7 14
BITMAP
08
30
40
c0
a0
40
ENDCHAR
STARTCHAR NIKHAHIT
ENCODING 237
SWIDTH 0 0
DWIDTH 0 0
BBX 4 3 -8 16
BITMAP
60
90
60
ENDCHAR
STARTCHAR YAMAKKAN
ENCODING 238
SWIDTH 0 0
DWIDTH 0 0
BBX 5 5 -8 15
BITMAP
38
40
60
80
60
ENDCHAR
STARTCHAR FONGMAN
ENCODING 239
SWIDTH 550 0
DWIDTH 11 0
BBX 7 10 2 0
BITMAP
38
44
92
aa
aa
aa
aa
92
44
38
ENDCHAR
STARTCHAR THAI_ZERO
ENCODING 240
SWIDTH 550 0
DWIDTH 11 0
BBX 9 10 1 0
BITMAP
1c00
2200
4300
8480
8880
9080
a080
4100
2200
1c00
ENDCHAR
STARTCHAR THAI_ONE
ENCODING 241
SWIDTH 550 0
DWIDTH 11 0
BBX 9 10 1 0
BITMAP
0e00
1100
2100
4880
4480
4500
3900
8100
4600
3800
ENDCHAR
STARTCHAR THAI_TWO
ENCODING 242
SWIDTH 550 0
DWIDTH 11 0
BBX 9 12 1 0
BITMAP
8000
4000
4500
4a80
9c80
9480
9480
8880
8100
8100
4100
3e00
ENDCHAR
STARTCHAR THAI_THREE
ENCODING 243
SWIDTH 550 0
DWIDTH 11 0
BBX 10 10 1 0
BITMAP
1100
2e80
4440
4440
8080
8080
c080
a100
a100
4100
ENDCHAR
STARTCHAR THAI_FOUR
ENCODING 244
SWIDTH 550 0
DWIDTH 11 0
BBX 9 13 1 0
BITMAP
0080
0100
0200
1c00
2000
4000
8400
8a00
8a00
8c00
4400
2200
1f80
ENDCHAR
STARTCHAR THAI_FIVE
ENCODING 245
SWIDTH 550 0
DWIDTH 11 0
BBX 9 15 1 0
BITMAP
0080
0500
0a00
0600
0200
1c00
2000
4000
8400
8a00
8a00
8c00
4400
2200
1f80
ENDCHAR
STARTCHAR THAI_SIX
ENCODING 246
SWIDTH 550 0
DWIDTH 11 0
BBX 8 12 2 0
BITMAP
40
40
20
3c
02
01
21
51
51
a2
84
78
ENDCHAR
STARTCHAR THAI_SEVEN
ENCODING 247
SWIDTH 550 0
DWIDTH 11 0
BBX 9 13 1 0
BITMAP
0400
0200
0100
0080
3680
4a80
4a80
4280
8280
c500
a500
a700
4400
ENDCHAR
STARTCHAR THAI_EIGHT
ENCODING 248
SWIDTH 550 0
DWIDTH 11 0
BBX 9 13 1 0
BITMAP
0080
0100
0200
1c00
2000
4000
4000
4000
8000
8900
8a80
5680
2100
ENDCHAR
STARTCHAR THAI_NINE
ENCODING 249
SWIDTH 550 0
DWIDTH 11 0
BBX 9 12 1 0
BITMAP
0080
0080
0480
6a80
9100
8800
8400
8200
4800
3400
1400
0800
ENDCHAR
STARTCHAR ANGKHANKHU
ENCODING 250
SWIDTH 550 0
DWIDTH 11 0
BBX 7 10 2 0
BITMAP
4a
8a
8a
9a
6a
0a
14
14
14
14
ENDCHAR
STARTCHAR KHOMUT
ENCODING 251
SWIDTH 550 0
DWIDTH 11 0
BBX 9 8 1 2
BITMAP
6000
8000
9000
9580
9600
9400
9800
6000
ENDCHAR
STARTCHAR udieresis
ENCODING 252
SWIDTH 550 0
DWIDTH 11 0
BBX 0 0 0 0
BITMAP
ENDCHAR
STARTCHAR yacute
ENCODING 253
SWIDTH 550 0
DWIDTH 11 0
BBX 0 0 0 0
BITMAP
ENDCHAR
STARTCHAR thorn
ENCODING 254
SWIDTH 550 0
DWIDTH 11 0
BBX 0 0 0 0
BITMAP
ENDCHAR
STARTCHAR ydieresis
ENCODING 255
SWIDTH 550 0
DWIDTH 11 0
BBX 0 0 0 0
BITMAP
ENDCHAR
ENDFONT
